<svg width="30" height="30" xmlns="http://www.w3.org/2000/svg" xmlns:xlink="http://www.w3.org/1999/xlink" xml:space="preserve" overflow="hidden"><g><path d="M15 13.75C13.4375 13.75 12.1875 12.5 12.1875 10.9375 12.1875 9.375 13.4375 8.125 15 8.125 16.5625 8.125 17.8125 9.375 17.8125 10.9375 17.8125 12.5 16.5625 13.75 15 13.75ZM15 4.375C12.8438 4.375 10.8125 5.4375 9.59375 7.25 8.375 9.03125 8.125 11.3125 8.90625 13.3438L11.875 19.9062 14.4375 25.2812C14.5312 25.5 14.75 25.625 15 25.625 15.25 25.625 15.4688 25.5 15.5625 25.2812L18.125 19.9062 21.0938 13.3438C21.875 11.3125 21.625 9.03125 20.4062 7.25 19.1875 5.4375 17.1562 4.375 15 4.375Z"/></g></svg>